<?xml version="1.0" encoding="UTF-8" standalone="no"?>
<!-- Created with Inkscape (http://www.inkscape.org/) -->

<svg
   xmlns:dc="http://purl.org/dc/elements/1.1/"
   xmlns:cc="http://creativecommons.org/ns#"
   xmlns:rdf="http://www.w3.org/1999/02/22-rdf-syntax-ns#"
   xmlns:svg="http://www.w3.org/2000/svg"
   xmlns="http://www.w3.org/2000/svg"
   xmlns:xlink="http://www.w3.org/1999/xlink"
   xmlns:sodipodi="http://sodipodi.sourceforge.net/DTD/sodipodi-0.dtd"
   xmlns:inkscape="http://www.inkscape.org/namespaces/inkscape"
   width="400"
   height="400"
   viewBox="0 0 400 400"
   id="svg4156"
   version="1.1"
   inkscape:version="0.91 r13725"
   sodipodi:docname="cactus.svg">
  <defs
     id="defs4158">
    <marker
       inkscape:stockid="TriangleOutM"
       orient="auto"
       refY="0.0"
       refX="0.0"
       id="TriangleOutM"
       style="overflow:visible"
       inkscape:isstock="true">
      <path
         id="path4436"
         d="M 5.77,0.0 L -2.88,5.0 L -2.88,-5.0 L 5.77,0.0 z "
         style="fill-rule:evenodd;stroke:#000000;stroke-width:1pt;stroke-opacity:1;fill:#000000;fill-opacity:1"
         transform="scale(0.4)" />
    </marker>
    <linearGradient
       inkscape:collect="always"
       id="linearGradient4173">
      <stop
         style="stop-color:#ffffff;stop-opacity:0.89080459"
         offset="0"
         id="stop4175" />
      <stop
         style="stop-color:#ffeecc;stop-opacity:1"
         offset="1"
         id="stop4177" />
    </linearGradient>
    <inkscape:path-effect
       effect="envelope"
       id="path-effect4764"
       is_visible="true"
       yy="true"
       xx="true"
       bendpath1="m 194.99998,745.08651 29.99999,0"
       bendpath2="m 224.99997,745.08651 0,140.55127"
       bendpath3="m 194.99998,885.63778 29.99999,0"
       bendpath4="m 194.99998,745.08651 0,140.55127" />
    <radialGradient
       inkscape:collect="always"
       xlink:href="#linearGradient4173"
       id="radialGradient4179"
       cx="189.7157"
       cy="872.58759"
       fx="189.7157"
       fy="872.58759"
       r="250.99997"
       gradientUnits="userSpaceOnUse" />
  </defs>
  <sodipodi:namedview
     id="base"
     pagecolor="#ffffff"
     bordercolor="#666666"
     borderopacity="1.0"
     inkscape:pageopacity="0.0"
     inkscape:pageshadow="2"
     inkscape:zoom="2.8284271"
     inkscape:cx="203.97104"
     inkscape:cy="228.16625"
     inkscape:document-units="px"
     inkscape:current-layer="layer1"
     showgrid="false"
     units="px"
     inkscape:window-width="1239"
     inkscape:window-height="665"
     inkscape:window-x="421"
     inkscape:window-y="161"
     inkscape:window-maximized="0"
     inkscape:snap-grids="true"
     showguides="false">
    <inkscape:grid
       type="xygrid"
       id="grid4768" />
  </sodipodi:namedview>
  <metadata
     id="metadata4161">
    <rdf:RDF>
      <cc:Work
         rdf:about="">
        <dc:format>image/svg+xml</dc:format>
        <dc:type
           rdf:resource="http://purl.org/dc/dcmitype/StillImage" />
        <dc:title />
      </cc:Work>
    </rdf:RDF>
  </metadata>
  <g
     inkscape:label="Layer 1"
     inkscape:groupmode="layer"
     id="layer1"
     transform="translate(0,-652.36216)">
    <path
       style="color:#000000;clip-rule:nonzero;display:inline;overflow:visible;visibility:visible;opacity:1;isolation:auto;mix-blend-mode:normal;color-interpolation:sRGB;color-interpolation-filters:linearRGB;solid-color:#000000;solid-opacity:1;fill:#e6c28b;fill-opacity:1;fill-rule:nonzero;stroke:#863a04;stroke-width:2;stroke-linecap:round;stroke-linejoin:round;stroke-miterlimit:4;stroke-dasharray:none;stroke-dashoffset:0;stroke-opacity:1;color-rendering:auto;image-rendering:auto;shape-rendering:auto;text-rendering:auto;enable-background:accumulate"
       d="m 255,832.36218 7,0 3,73 -13,1 z"
       id="rect4232"
       inkscape:connector-curvature="0"
       sodipodi:nodetypes="ccccc" />
    <ellipse
       style="opacity:1;fill:url(#radialGradient4179);fill-opacity:1;stroke:#ffa14c;stroke-width:1.99999976;stroke-linecap:square;stroke-linejoin:miter;stroke-miterlimit:4;stroke-dasharray:none;stroke-dashoffset:0;stroke-opacity:1"
       id="path4840"
       cx="189.7157"
       cy="872.58759"
       r="249.99997" />
    <path
       style="opacity:1;fill:#99c6a6;fill-opacity:1;stroke:#047200;stroke-width:1.99999976;stroke-linecap:square;stroke-linejoin:miter;stroke-miterlimit:4;stroke-dasharray:none;stroke-dashoffset:0;stroke-opacity:1"
       d="m 108.49999,703.86213 c -6.90356,0 -12.499996,5.59644 -12.499996,12.5 l 0,135 c -11.999976,-10e-6 -20.176286,-1.83282 -20.087886,-14.91602 0.0884,-13.0832 0.0879,-23.83398 0.0879,-23.83398 0,-6.90356 -5.59644,-12.5 -12.499998,-12.5 -6.90356,0 -12.5,5.59644 -12.5,12.5 l 0,24.75 c 2e-5,18.99999 2e-5,38.99998 44.999994,39 l 0,30 24.999996,0 0,-75 c 44.99999,-2e-5 44.99998,-20.00001 45,-39 l 0,-51 c 0,-6.90356 -5.59644,-12.5 -12.5,-12.5 -6.90356,0 -12.5,5.59644 -12.5,12.5 0,0 -5.3e-4,37.00078 0.0879,50.08398 0.0884,13.0832 -8.08791,14.91601 -20.08789,14.91602 l 0,-90 c 0,-6.90356 -5.59644,-12.5 -12.5,-12.5 z"
       id="rect4770"
       inkscape:connector-curvature="0" />
    <path
       style="color:#000000;clip-rule:nonzero;display:inline;overflow:visible;visibility:visible;opacity:1;isolation:auto;mix-blend-mode:normal;color-interpolation:sRGB;color-interpolation-filters:linearRGB;solid-color:#000000;solid-opacity:1;fill:#000000;fill-opacity:0.41176471;fill-rule:nonzero;stroke:none;stroke-width:2;stroke-linecap:round;stroke-linejoin:round;stroke-miterlimit:4;stroke-dasharray:none;stroke-dashoffset:0;stroke-opacity:1;color-rendering:auto;image-rendering:auto;shape-rendering:auto;text-rendering:auto;enable-background:accumulate"
       d="m 105.39403,897.21004 c 0,-5.46734 12.15758,-15.18352 19.75608,-7.07106 7.5985,8.11246 -19.65145,9.35159 -19.75608,7.07106 z"
       id="path4168-8"
       inkscape:connector-curvature="0"
       sodipodi:nodetypes="czc" />
    <path
       style="color:#000000;clip-rule:nonzero;display:inline;overflow:visible;visibility:visible;opacity:1;isolation:auto;mix-blend-mode:normal;color-interpolation:sRGB;color-interpolation-filters:linearRGB;solid-color:#000000;solid-opacity:1;fill:#c7c7c7;fill-opacity:1;fill-rule:nonzero;stroke:#787878;stroke-width:2;stroke-linecap:round;stroke-linejoin:round;stroke-miterlimit:4;stroke-dasharray:none;stroke-dashoffset:0;stroke-opacity:1;color-rendering:auto;image-rendering:auto;shape-rendering:auto;text-rendering:auto;enable-background:accumulate"
       d="m 151.09079,900.97022 c 1e-5,5.46734 -13.43376,5.19975 -21.63477,5.19975 -8.20101,0 -14.84924,-4.43216 -14.84924,-9.8995 0,-5.46734 16.37395,-14.15498 20.50609,-7.07106 6.34745,10.88173 15.97792,6.30347 15.97792,11.77081 z"
       id="path4168"
       inkscape:connector-curvature="0"
       sodipodi:nodetypes="sssss" />
    <path
       style="color:#000000;clip-rule:nonzero;display:inline;overflow:visible;visibility:visible;opacity:1;isolation:auto;mix-blend-mode:normal;color-interpolation:sRGB;color-interpolation-filters:linearRGB;solid-color:#000000;solid-opacity:1;fill:#b67b35;fill-opacity:0.30588236;fill-rule:nonzero;stroke:none;stroke-width:2;stroke-linecap:round;stroke-linejoin:round;stroke-miterlimit:4;stroke-dasharray:none;stroke-dashoffset:0;stroke-opacity:1;color-rendering:auto;image-rendering:auto;shape-rendering:auto;text-rendering:auto;enable-background:accumulate"
       d="m 255.91716,833.31432 3,0.0625 c -3.28362,29.60548 -0.68915,42.59176 1.875,64.99999 l -7.5,1 z"
       id="rect4232-7"
       inkscape:connector-curvature="0"
       sodipodi:nodetypes="ccccc" />
    <path
       style="fill:#ffdd8f;fill-opacity:1;fill-rule:evenodd;stroke:#ac7103;stroke-width:1.99999976;stroke-linecap:butt;stroke-linejoin:miter;stroke-miterlimit:4;stroke-dasharray:none;stroke-opacity:1"
       d="m 51.176642,895.12685 c 63.525788,4.8681 145.085018,8.20282 190.442918,5.00936 45.3579,-3.19346 105.42595,-1.12161 82.93808,6.67934 -53.68612,18.6235 -83.23384,67.97022 -129.60152,113.96215 -9.69722,-15.2467 -15.12501,-26.81393 -31.00292,-39.73823 l -54.84703,-10.1387 C 102.22205,924.03829 47.462369,906.09746 51.176642,895.12685 Z"
       id="path4723"
       inkscape:connector-curvature="0"
       sodipodi:nodetypes="czccccc" />
    <path
       style="color:#000000;font-style:normal;font-variant:normal;font-weight:normal;font-stretch:normal;font-size:medium;line-height:normal;font-family:sans-serif;text-indent:0;text-align:start;text-decoration:none;text-decoration-line:none;text-decoration-style:solid;text-decoration-color:#000000;letter-spacing:normal;word-spacing:normal;text-transform:none;direction:ltr;block-progression:tb;writing-mode:lr-tb;baseline-shift:baseline;text-anchor:start;white-space:normal;clip-rule:nonzero;display:inline;overflow:visible;visibility:visible;opacity:1;isolation:auto;mix-blend-mode:normal;color-interpolation:sRGB;color-interpolation-filters:linearRGB;solid-color:#000000;solid-opacity:1;fill:#ac7103;fill-opacity:1;fill-rule:evenodd;stroke:none;stroke-width:1.99999976;stroke-linecap:butt;stroke-linejoin:miter;stroke-miterlimit:4;stroke-dasharray:none;stroke-dashoffset:0;stroke-opacity:1;color-rendering:auto;image-rendering:auto;shape-rendering:auto;text-rendering:auto;enable-background:accumulate"
       d="m 50.491156,895.08143 -0.26172,0.77343 c -0.59723,1.76401 0.0221,3.61787 1.27149,5.38282 1.24941,1.76494 3.16098,3.57979 5.54882,5.58203 4.7757,4.00448 11.469897,8.72584 18.476567,14.55273 14.013339,11.65379 29.200537,27.65049 32.589847,50.72266 l 0.10351,0.70703 55.28125,10.2207 c 13.94901,11.65127 23.74011,27.31817 31.29632,39.27297 l 1.45615,-1.5167 c -14.70201,-20.676 -8.11841,-81.30275 -37.74378,-88.32865 l -25.26812,21.43011 z"
       id="path4723-8"
       inkscape:connector-curvature="0"
       sodipodi:nodetypes="ccssscccccccc" />
    <path
       style="color:#000000;clip-rule:nonzero;display:inline;overflow:visible;visibility:visible;opacity:1;isolation:auto;mix-blend-mode:normal;color-interpolation:sRGB;color-interpolation-filters:linearRGB;solid-color:#000000;solid-opacity:1;fill:#ffc074;fill-opacity:1;fill-rule:nonzero;stroke:#863a04;stroke-width:2;stroke-linecap:round;stroke-linejoin:round;stroke-miterlimit:4;stroke-dasharray:none;stroke-dashoffset:0;stroke-opacity:1;color-rendering:auto;image-rendering:auto;shape-rendering:auto;text-rendering:auto;enable-background:accumulate"
       d="m 233.38074,846.01006 44.83021,-4.24264 2.2929,23.14897 -47.64823,0.2929 z"
       id="rect4232-2"
       inkscape:connector-curvature="0"
       sodipodi:nodetypes="ccccc" />
    <g
       style="font-style:italic;font-weight:bold;font-size:40px;line-height:125%;font-family:Sans;-inkscape-font-specification:'Sans Italic';letter-spacing:0px;word-spacing:0px;fill:#000000;fill-opacity:0.79411765;stroke:none;stroke-width:1px;stroke-linecap:butt;stroke-linejoin:miter;stroke-opacity:1"
       id="text4250">
      <path
         d="m 244.692,848.7713 7.08252,0 0,2.38037 -4.79736,0 -0.25635,1.61133 q 0.49805,-0.23437 0.98144,-0.35156 0.49073,-0.11719 0.9668,-0.11719 1.61133,0 2.61475,0.97412 1.00341,0.97412 1.00341,2.45362 0,1.04003 -0.52001,1.99951 -0.5127,0.95947 -1.46485,1.46484 -0.94482,0.50537 -2.42431,0.50537 -1.06202,0 -1.82373,-0.19775 -0.7544,-0.20508 -1.28907,-0.60059 -0.52734,-0.40283 -0.85693,-0.9082 -0.32959,-0.50537 -0.54932,-1.25977 l 3.01758,-0.32959 q 0.10986,0.7251 0.5127,1.10596 0.40283,0.37354 0.95947,0.37354 0.62256,0 1.02539,-0.46875 0.41016,-0.47608 0.41016,-1.41358 0,-0.95947 -0.41016,-1.40625 -0.41016,-0.44678 -1.09131,-0.44678 -0.43213,0 -0.83496,0.21241 -0.30029,0.15381 -0.65918,0.55664 l -2.5415,-0.36621 0.94482,-5.77149 z"
         style="font-style:normal;font-variant:normal;font-weight:normal;font-stretch:normal;font-size:14.99999809px;font-family:'Arial Black';-inkscape-font-specification:'Arial Black, ';fill:#000000;fill-opacity:0.79411765;stroke:none;stroke-opacity:1"
         id="path4159" />
      <path
         d="m 253.50304,854.09601 q 0,-3.06152 1.09863,-4.28467 1.10596,-1.22314 3.36181,-1.22314 1.08399,0 1.77979,0.27099 0.6958,0.26368 1.13525,0.6958 0.43946,0.42481 0.68848,0.90088 0.25635,0.46875 0.41016,1.09864 0.30029,1.20117 0.30029,2.50488 0,2.92236 -0.98877,4.27734 -0.98877,1.35498 -3.40576,1.35498 -1.35498,0 -2.18994,-0.43213 -0.83496,-0.43213 -1.36963,-1.26709 -0.38819,-0.59326 -0.60791,-1.61865 -0.2124,-1.03271 -0.2124,-2.27783 z m 2.95898,0.007 q 0,2.05078 0.35889,2.80518 0.36621,0.74707 1.05468,0.74707 0.45411,0 0.78369,-0.31494 0.33692,-0.32227 0.49073,-1.01074 0.16113,-0.68848 0.16113,-2.146 0,-2.13867 -0.36621,-2.87109 -0.35889,-0.73975 -1.08398,-0.73975 -0.73975,0 -1.06934,0.75439 -0.32959,0.74707 -0.32959,2.77588 z"
         style="font-style:normal;font-variant:normal;font-weight:normal;font-stretch:normal;font-size:14.99999809px;font-family:'Arial Black';-inkscape-font-specification:'Arial Black, ';fill:#000000;fill-opacity:0.79411765;stroke:none;stroke-opacity:1"
         id="path4161" />
      <path
         d="m 270.28282,848.5882 0,10.92041 -3.01758,0 0,-7.15576 q -0.73242,0.55664 -1.4209,0.90087 -0.68115,0.34424 -1.71386,0.65918 l 0,-2.44629 q 1.52343,-0.49072 2.36572,-1.17919 0.84228,-0.68848 1.31836,-1.69922 l 2.46826,0 z"
         style="font-style:normal;font-variant:normal;font-weight:normal;font-stretch:normal;font-size:14.99999809px;font-family:'Arial Black';-inkscape-font-specification:'Arial Black, ';fill:#000000;fill-opacity:0.79411765;stroke:none;stroke-opacity:1"
         id="path4163" />
    </g>
  </g>
</svg>
